<mxfile host="app.diagrams.net" modified="2020-11-24T09:58:13.070Z" agent="5.0 (Macintosh)" etag="F7RNfUjywt4PvFH3v3Lu" version="13.10.1" type="github">
  <diagram id="3LjjMmSiXknQFx3guOvZ" name="Page-1">
    <mxGraphModel dx="967" dy="1140" grid="1" gridSize="10" guides="1" tooltips="1" connect="1" arrows="1" fold="1" page="1" pageScale="1" pageWidth="827" pageHeight="1169" math="0" shadow="0">
      <root>
        <mxCell id="0" />
        <mxCell id="1" parent="0" />
        <mxCell id="0anmsecB1Iln24H1zlf4-1" value="Front End" style="rounded=1;whiteSpace=wrap;html=1;align=center;verticalAlign=top;fillColor=#B2C9AB;strokeColor=#788AA3;fontColor=#46495D;spacingTop=10;" vertex="1" parent="1">
          <mxGeometry x="115" y="190" width="490" height="340" as="geometry" />
        </mxCell>
        <mxCell id="0anmsecB1Iln24H1zlf4-6" style="edgeStyle=orthogonalEdgeStyle;curved=0;rounded=1;sketch=0;orthogonalLoop=1;jettySize=auto;html=1;strokeColor=#788AA3;fillColor=#B2C9AB;fontColor=#46495D;" edge="1" parent="1" source="0anmsecB1Iln24H1zlf4-2" target="0anmsecB1Iln24H1zlf4-3">
          <mxGeometry relative="1" as="geometry">
            <Array as="points">
              <mxPoint x="300" y="370" />
              <mxPoint x="300" y="370" />
            </Array>
          </mxGeometry>
        </mxCell>
        <mxCell id="0anmsecB1Iln24H1zlf4-2" value="Components" style="rounded=1;whiteSpace=wrap;html=1;align=center;fillColor=#fad7ac;strokeColor=#b46504;" vertex="1" parent="1">
          <mxGeometry x="180" y="250" width="360" height="120" as="geometry" />
        </mxCell>
        <mxCell id="0anmsecB1Iln24H1zlf4-8" style="edgeStyle=orthogonalEdgeStyle;curved=0;rounded=1;sketch=0;orthogonalLoop=1;jettySize=auto;html=1;entryX=0.5;entryY=0;entryDx=0;entryDy=0;strokeColor=#788AA3;fillColor=#B2C9AB;fontColor=#46495D;" edge="1" parent="1" source="0anmsecB1Iln24H1zlf4-3" target="0anmsecB1Iln24H1zlf4-7">
          <mxGeometry relative="1" as="geometry" />
        </mxCell>
        <mxCell id="0anmsecB1Iln24H1zlf4-3" value="&lt;div&gt;HTTP Service Logic&lt;/div&gt;" style="rounded=1;whiteSpace=wrap;html=1;align=center;fillColor=#fad7ac;strokeColor=#b46504;" vertex="1" parent="1">
          <mxGeometry x="190" y="410" width="340" height="90" as="geometry" />
        </mxCell>
        <mxCell id="0anmsecB1Iln24H1zlf4-4" value="Netzwerk (Internet)" style="ellipse;shape=cloud;whiteSpace=wrap;html=1;rounded=0;sketch=0;strokeColor=#788AA3;fillColor=#B2C9AB;fontColor=#46495D;" vertex="1" parent="1">
          <mxGeometry x="165" y="730" width="310" height="150" as="geometry" />
        </mxCell>
        <mxCell id="0anmsecB1Iln24H1zlf4-11" style="edgeStyle=orthogonalEdgeStyle;curved=0;rounded=1;sketch=0;orthogonalLoop=1;jettySize=auto;html=1;entryX=0.427;entryY=0.067;entryDx=0;entryDy=0;entryPerimeter=0;strokeColor=#788AA3;fillColor=#B2C9AB;fontColor=#46495D;" edge="1" parent="1" source="0anmsecB1Iln24H1zlf4-7" target="0anmsecB1Iln24H1zlf4-4">
          <mxGeometry relative="1" as="geometry" />
        </mxCell>
        <mxCell id="0anmsecB1Iln24H1zlf4-12" style="edgeStyle=orthogonalEdgeStyle;curved=0;rounded=1;sketch=0;orthogonalLoop=1;jettySize=auto;html=1;entryX=0;entryY=0.5;entryDx=0;entryDy=0;strokeColor=#788AA3;fillColor=#B2C9AB;fontColor=#46495D;" edge="1" parent="1" source="0anmsecB1Iln24H1zlf4-7" target="0anmsecB1Iln24H1zlf4-10">
          <mxGeometry relative="1" as="geometry" />
        </mxCell>
        <mxCell id="0anmsecB1Iln24H1zlf4-7" value="HTTP Proxy Tapes Recorder" style="rounded=1;whiteSpace=wrap;html=1;sketch=0;strokeColor=#788AA3;fillColor=#B2C9AB;fontColor=#46495D;" vertex="1" parent="1">
          <mxGeometry x="165" y="600" width="265" height="80" as="geometry" />
        </mxCell>
        <mxCell id="0anmsecB1Iln24H1zlf4-10" value="&lt;div&gt;Tapes in JSON5, &lt;br&gt;&lt;/div&gt;&lt;div&gt;recorded Resposes&lt;/div&gt;" style="rounded=1;whiteSpace=wrap;html=1;sketch=0;strokeColor=#788AA3;fillColor=#B2C9AB;fontColor=#46495D;" vertex="1" parent="1">
          <mxGeometry x="580" y="592.5" width="200" height="95" as="geometry" />
        </mxCell>
        <mxCell id="0anmsecB1Iln24H1zlf4-13" value="App = Unit" style="rounded=1;whiteSpace=wrap;html=1;sketch=0;strokeColor=#788AA3;fontColor=#46495D;align=left;fillColor=none;dashed=1;verticalAlign=top;" vertex="1" parent="1">
          <mxGeometry x="70" y="160" width="660" height="410" as="geometry" />
        </mxCell>
      </root>
    </mxGraphModel>
  </diagram>
</mxfile>
